<?xml version="1.0" encoding="utf-8"?>
<!-- Generator: Adobe Illustrator 24.1.1, SVG Export Plug-In . SVG Version: 6.00 Build 0)  -->
<svg version="1.1" id="Capa_1" xmlns="http://www.w3.org/2000/svg" xmlns:xlink="http://www.w3.org/1999/xlink" x="0px" y="0px"
	 viewBox="0 0 86.97 56.43" style="enable-background:new 0 0 86.97 56.43;" xml:space="preserve">
<style type="text/css">
	.st0{fill:#000333;}
	.st1{clip-path:url(#SVGID_2_);}
	.st2{clip-path:url(#SVGID_4_);fill:url(#SVGID_5_);}
	.st3{clip-path:url(#SVGID_7_);fill:url(#SVGID_8_);}
	.st4{clip-path:url(#SVGID_10_);fill:url(#SVGID_11_);}
</style>
<g>
	<g>
		<path class="st0" d="M6.2,51.98c0.06,0.13,0.11,0.27,0.16,0.4c0.05-0.14,0.11-0.27,0.17-0.41c0.06-0.13,0.12-0.26,0.18-0.39
			l2.45-4.62c0.03-0.06,0.06-0.1,0.09-0.14c0.03-0.03,0.07-0.06,0.11-0.07c0.04-0.02,0.08-0.02,0.13-0.03
			c0.05,0,0.11-0.01,0.18-0.01l1.16,0l-0.02,8.35l-1.35,0l0.01-5.39c0-0.1,0-0.21,0.01-0.33s0.02-0.24,0.03-0.36l-2.5,4.73
			c-0.06,0.11-0.13,0.19-0.22,0.25c-0.09,0.06-0.2,0.09-0.32,0.09l-0.21,0c-0.12,0-0.23-0.03-0.32-0.09
			c-0.09-0.06-0.16-0.14-0.22-0.25l-2.51-4.76c0.01,0.13,0.02,0.25,0.03,0.37s0.01,0.23,0.01,0.34l-0.01,5.39l-1.35,0L1.9,46.7
			l1.16,0c0.07,0,0.13,0,0.18,0.01c0.05,0,0.09,0.01,0.13,0.03c0.04,0.02,0.08,0.04,0.11,0.08s0.07,0.08,0.1,0.14l2.45,4.64
			C6.09,51.72,6.15,51.85,6.2,51.98z"/>
		<path class="st0" d="M21.12,46.75l0,1.24l-3.65-0.01l-0.01,2.32l2.88,0.01l0,1.19l-2.88-0.01l-0.01,2.36l3.65,0.01l0,1.24
			l-5.2-0.01l0.02-8.35L21.12,46.75z"/>
		<path class="st0" d="M31.67,46.78l0,1.28l-2.48-0.01l-0.02,7.07l-1.53,0l0.02-7.07l-2.49-0.01l0-1.28L31.67,46.78z"/>
		<path class="st0" d="M43.28,55.16l-1.18,0c-0.13,0-0.24-0.03-0.33-0.1c-0.08-0.07-0.15-0.15-0.18-0.25l-0.61-1.7l-3.41-0.01
			l-0.62,1.7c-0.03,0.09-0.09,0.17-0.18,0.24c-0.09,0.07-0.2,0.11-0.33,0.11l-1.19,0l3.26-8.34l1.57,0L43.28,55.16z M37.95,52
			L40.58,52l-0.99-2.78c-0.05-0.12-0.09-0.27-0.15-0.44c-0.05-0.17-0.11-0.35-0.16-0.55c-0.05,0.2-0.11,0.38-0.16,0.55
			c-0.05,0.17-0.1,0.32-0.15,0.44L37.95,52z"/>
		<path class="st0" d="M53.21,53.22c0.08,0,0.16,0.03,0.22,0.1l0.6,0.67c-0.33,0.42-0.75,0.74-1.24,0.96
			c-0.49,0.22-1.08,0.33-1.76,0.33c-0.61,0-1.16-0.11-1.65-0.32c-0.49-0.21-0.9-0.51-1.25-0.89c-0.34-0.38-0.61-0.83-0.79-1.35
			s-0.27-1.1-0.27-1.72c0-0.63,0.11-1.2,0.31-1.72c0.21-0.52,0.5-0.97,0.87-1.35c0.37-0.38,0.82-0.67,1.34-0.88
			c0.52-0.21,1.09-0.31,1.72-0.31c0.61,0,1.15,0.1,1.6,0.3c0.46,0.2,0.85,0.46,1.17,0.79l-0.51,0.72c-0.03,0.05-0.07,0.09-0.12,0.12
			c-0.05,0.03-0.11,0.05-0.2,0.05c-0.09,0-0.18-0.04-0.27-0.1c-0.09-0.07-0.21-0.15-0.35-0.23c-0.14-0.08-0.32-0.16-0.53-0.23
			c-0.21-0.07-0.49-0.11-0.82-0.11c-0.39,0-0.74,0.07-1.07,0.2c-0.33,0.14-0.6,0.33-0.84,0.58c-0.24,0.25-0.42,0.56-0.55,0.93
			c-0.13,0.36-0.2,0.77-0.2,1.23c0,0.47,0.06,0.89,0.19,1.25c0.13,0.37,0.31,0.67,0.53,0.93c0.22,0.25,0.49,0.44,0.79,0.58
			c0.3,0.13,0.63,0.2,0.98,0.2c0.21,0,0.4-0.01,0.57-0.03c0.17-0.02,0.33-0.06,0.47-0.11c0.14-0.05,0.28-0.11,0.41-0.19
			c0.13-0.08,0.25-0.18,0.38-0.29c0.04-0.03,0.08-0.06,0.12-0.08C53.12,53.23,53.16,53.22,53.21,53.22z"/>
		<path class="st0" d="M65.84,55.22l-1.18,0c-0.13,0-0.24-0.03-0.33-0.1c-0.08-0.07-0.15-0.15-0.18-0.25l-0.61-1.7l-3.41-0.01
			l-0.62,1.7c-0.03,0.09-0.09,0.17-0.18,0.24c-0.09,0.07-0.2,0.11-0.33,0.11l-1.19,0l3.26-8.34l1.57,0L65.84,55.22z M60.52,52.06
			l2.63,0.01l-1-2.78c-0.05-0.12-0.09-0.27-0.15-0.44c-0.05-0.17-0.11-0.35-0.16-0.55c-0.05,0.2-0.11,0.38-0.16,0.55
			c-0.05,0.17-0.1,0.32-0.15,0.44L60.52,52.06z"/>
		<path class="st0" d="M71.65,53.96l3.3,0.01l0,1.28l-4.83-0.01l0.02-8.35l1.53,0L71.65,53.96z"/>
		<path class="st0" d="M80.96,53.98l3.3,0.01l0,1.28l-4.83-0.01l0.02-8.35l1.53,0L80.96,53.98z"/>
	</g>
	<g id="Ilustración_5_1_">
		<g>
			<defs>
				
					<rect id="SVGID_1_" x="18.49" y="-15.36" transform="matrix(2.731323e-03 -1 1 2.731323e-03 17.3075 52.6387)" width="33.1" height="66"/>
			</defs>
			<clipPath id="SVGID_2_">
				<use xlink:href="#SVGID_1_"  style="overflow:visible;"/>
			</clipPath>
			<g class="st1">
				<defs>
					<path id="SVGID_3_" d="M3.62,1c-4.09,0,1.32,1.69,1.32,1.69c0.73,0.48,3.58,1.9,6.93,6.48c2.79,3.81,5.94,9.82,8.5,19.31
						c3.58,4.43,5.93,5.69,8.7,5.69c2.77,0.01,3.06-1.52,3.06-2.62c0-0.91-3.83-20.14-17.22-27.61C11.97,2.3,8.58,1.23,4.66,1.03
						C4.3,1.02,3.98,1.01,3.7,1L3.62,1z"/>
				</defs>
				<clipPath id="SVGID_4_">
					<use xlink:href="#SVGID_3_"  style="overflow:visible;"/>
				</clipPath>
				
					<linearGradient id="SVGID_5_" gradientUnits="userSpaceOnUse" x1="-253.9865" y1="-71.9097" x2="-252.9865" y2="-71.9097" gradientTransform="matrix(56.9131 96.2495 96.2495 -56.9131 21373.9277 20340.0723)">
					<stop  offset="0" style="stop-color:#FFFFFF"/>
					<stop  offset="0.0462" style="stop-color:#BFECE5"/>
					<stop  offset="0.1201" style="stop-color:#5DCEBE"/>
					<stop  offset="0.1225" style="stop-color:#5DCDBE"/>
					<stop  offset="0.2631" style="stop-color:#4599CE"/>
					<stop  offset="0.369" style="stop-color:#3679D7"/>
					<stop  offset="0.4274" style="stop-color:#316DDB"/>
					<stop  offset="0.51" style="stop-color:#3955CC"/>
					<stop  offset="0.6268" style="stop-color:#423BBA"/>
					<stop  offset="0.7463" style="stop-color:#4928AE"/>
					<stop  offset="0.869" style="stop-color:#4D1DA6"/>
					<stop  offset="1" style="stop-color:#4E19A4"/>
				</linearGradient>
				<polygon class="st2" points="23.7,-13.3 46.69,25.57 7.94,48.48 -15.04,9.61 				"/>
			</g>
			<g class="st1">
				<defs>
					<path id="SVGID_6_" d="M21.56,1.05c-4.09,0,1.32,1.69,1.32,1.69c1.34,0.88,9.79,4.92,15.43,25.79
						c3.58,4.43,5.93,5.69,8.71,5.69c2.76,0.01,3.05-1.52,3.05-2.62c0-1.11-5.71-29.45-27.46-30.53c-0.37-0.02-0.69-0.03-0.97-0.03
						L21.56,1.05z"/>
				</defs>
				<clipPath id="SVGID_7_">
					<use xlink:href="#SVGID_6_"  style="overflow:visible;"/>
				</clipPath>
				
					<linearGradient id="SVGID_8_" gradientUnits="userSpaceOnUse" x1="-253.9865" y1="-71.9097" x2="-252.9865" y2="-71.9097" gradientTransform="matrix(56.9131 96.2495 96.2495 -56.9131 21387.2012 20332.2246)">
					<stop  offset="0" style="stop-color:#FFFFFF"/>
					<stop  offset="0.0462" style="stop-color:#BFECE5"/>
					<stop  offset="0.1201" style="stop-color:#5DCEBE"/>
					<stop  offset="0.1225" style="stop-color:#5DCDBE"/>
					<stop  offset="0.2631" style="stop-color:#4599CE"/>
					<stop  offset="0.369" style="stop-color:#3679D7"/>
					<stop  offset="0.4274" style="stop-color:#316DDB"/>
					<stop  offset="0.51" style="stop-color:#3955CC"/>
					<stop  offset="0.6268" style="stop-color:#423BBA"/>
					<stop  offset="0.7463" style="stop-color:#4928AE"/>
					<stop  offset="0.869" style="stop-color:#4D1DA6"/>
					<stop  offset="1" style="stop-color:#4E19A4"/>
				</linearGradient>
				<polygon class="st3" points="41.64,-13.25 64.63,25.62 25.88,48.53 2.9,9.66 				"/>
			</g>
			<g class="st1">
				<defs>
					<path id="SVGID_9_" d="M39.5,1.1c-4.09,0,1.32,1.69,1.32,1.69c1.35,0.88,9.79,4.92,15.43,25.79c1.44,1.78,2.67,3.04,3.82,3.92
						c1.72,1.32,3.22,1.77,4.89,1.78c2.76,0.01,3.05-1.52,3.05-2.62c0-0.38-0.68-3.99-2.44-8.61l0-0.01
						c-3.39-8.79-10.76-21.2-25.02-21.91c-0.37-0.02-0.69-0.03-0.97-0.03L39.5,1.1z"/>
				</defs>
				<clipPath id="SVGID_10_">
					<use xlink:href="#SVGID_9_"  style="overflow:visible;"/>
				</clipPath>
				
					<linearGradient id="SVGID_11_" gradientUnits="userSpaceOnUse" x1="-253.9865" y1="-71.9097" x2="-252.9865" y2="-71.9097" gradientTransform="matrix(56.9131 96.2495 96.2495 -56.9131 21400.4746 20324.375)">
					<stop  offset="0" style="stop-color:#FFFFFF"/>
					<stop  offset="0.0462" style="stop-color:#BFECE5"/>
					<stop  offset="0.1201" style="stop-color:#5DCEBE"/>
					<stop  offset="0.1225" style="stop-color:#5DCDBE"/>
					<stop  offset="0.2631" style="stop-color:#4599CE"/>
					<stop  offset="0.369" style="stop-color:#3679D7"/>
					<stop  offset="0.4274" style="stop-color:#316DDB"/>
					<stop  offset="0.51" style="stop-color:#3955CC"/>
					<stop  offset="0.6268" style="stop-color:#423BBA"/>
					<stop  offset="0.7463" style="stop-color:#4928AE"/>
					<stop  offset="0.869" style="stop-color:#4D1DA6"/>
					<stop  offset="1" style="stop-color:#4E19A4"/>
				</linearGradient>
				<polygon class="st4" points="59.58,-13.2 82.57,25.67 43.82,48.58 20.84,9.71 				"/>
			</g>
		</g>
	</g>
</g>
</svg>
